# AST/ASF file generated using VICON BodyLanguage
# -----------------------------------------------
:version 1.10
:name VICON
:units
  mass 1.0
  length 0.45
  angle deg
:documentation
   .ast/.asf automatically generated from VICON data using
   VICON BodyBuilder and BodyLanguage model FoxedUp or BRILLIANT.MOD
:root
   order TX TY TZ RX RY RZ
   axis XYZ
   position 0 0 0  
   orientation 0 0 0 
:bonedata
  begin
     id 1 
     name lhipjoint
     direction 0.646657 -0.683706 0.338203 
     length 2.4948 
     axis 0 0 0  XYZ
  end
  begin
     id 2 
     name lfemur
     direction 0.34202 -0.939693 0  
     length 6.79491  
     axis 0 0 20  XYZ
    dof rx ry rz
    limits (-160.0 20.0)
           (-70.0 70.0)
           (-60.0 70.0)
  end
  begin
     id 3 
     name ltibia
     direction 0.34202 -0.939693 0   
     length 7.56807   
     axis 0 0 20   XYZ
    dof rx
    limits (-10.0 170.0)
  end
  begin
     id 4 
     name lfoot
     direction 0.0679796 -0.186772 0.980048   
     length 2.53018   
     axis -90 7.62852e-016 20   XYZ
    dof rx rz
    limits (-45.0 90.0)
           (-70.0 20.0)
  end
  begin
     id 5 
     name ltoes
     direction 1.53625e-011 -4.21881e-011 1   
     length 1.26912   
     axis -90 7.62852e-016 20   XYZ
    dof rx
    limits (-90.0 20.0)
  end
  begin
     id 6 
     name rhipjoint
     direction -0.618868 -0.704065 0.348274   
     length 2.42265  
     axis 0 0 0  XYZ 
  end
  begin
     id 7 
     name rfemur
     direction -0.34202 -0.939693 0   
     length 6.73814   
     axis 0 0 -20   XYZ
    dof rx ry rz
    limits (-160.0 20.0)
           (-70.0 70.0)
           (-70.0 60.0)
  end
  begin
     id 8 
     name rtibia
     direction -0.34202 -0.939693 0   
     length 7.66799   
     axis 0 0 -20   XYZ
    dof rx
    limits (-10.0 170.0)
 end
 begin
     id 9 
     name rfoot
     direction -0.0727352 -0.199838 0.977125   
     length 2.57224  
     axis -90 -7.62852e-016 -20   XYZ
    dof rx rz
    limits (-45.0 90.0)
           (-20.0 70.0)
  end
  begin
     id 10 
     name rtoes
     direction -1.53501e-011 -4.21858e-011 1   
     length 1.28858   
     axis -90 -7.62852e-016 -20   XYZ
    dof rx
    limits (-90.0 20.0)
  end
  begin
     id 11 
     name lowerback
     direction -0.0172471 0.995767 -0.0902851   
     length 2.20206   
     axis 0 0 0   XYZ
    dof rx ry rz
    limits (-20.0 45.0)
           (-30.0 30.0)
           (-30.0 30.0)
  end
  begin
     id 12 
     name upperback
     direction -0.000110737 0.999714 0.0239043   
     length 2.19523   
     axis 0 0 0   XYZ
    dof rx ry rz
    limits (-20.0 45.0)
           (-30.0 30.0)
           (-30.0 30.0)
  end
  begin
     id 13 
     name thorax
     direction 0.00704869 0.997783 0.0661741   
     length 2.21977   
     axis 0 0 0   XYZ
    dof rx ry rz
    limits (-20.0 45.0)
           (-30.0 30.0)
           (-30.0 30.0)
  end
  begin
     id 14 
     name lowerneck
     direction -0.00407501 0.995527 0.0943846   
     length 1.83142   
     axis 0 0 0   XYZ
    dof rx ry rz
    limits (-20.0 45.0)
           (-30.0 30.0)
           (-30.0 30.0)
  end
  begin
     id 15 
     name upperneck
     direction 0.0640586 0.986486 -0.150807   
     length 1.84616   
     axis 0 0 0   XYZ
    dof rx ry rz
    limits (-20.0 45.0)
           (-30.0 30.0)
           (-30.0 30.0)
  end
  begin
     id 16
     name head
     direction 0.0188017 0.99791 -0.0618239  
     length 1.85932  
     axis 0 0 0   XYZ
    dof rx ry rz
    limits (-20.0 45.0)
           (-30.0 30.0)
           (-30.0 30.0)
  end
  begin
     id 17 
     name lclavicle
     direction 0.976074 0.206905 0.066852  
     length 3.81043  
     axis 0 0 0   XYZ
    dof ry rz
    limits (-20.0 10.0)
           (0.0 20.0)
  end
  begin
     id 18 
     name lhumerus
     direction 1 -4.48971e-011 1.86916e-027   
     length 5.37587   
     axis 180 -30 -90   XYZ
    dof rx ry rz
    limits (-60.0 90.0)
           (-90.0 90.0)
           (-90.0 90.0)
  end
  begin
     id 19
     name lradius
     direction 1 -4.48968e-011 1.69187e-027   
     length 3.35977   
     axis 180 -30 -90   XYZ
    dof rx
    limits (-10.0 170.0)
  end
  begin
     id 20
     name lwrist
     direction 1 -4.48968e-011 5.8978e-027   
     length 1.67988   
     axis -3.27506e-015 90 90   XYZ
    dof ry
    limits (-180.0 0.0)
 end
  begin
     id 21 
     name lhand
     direction 1 -4.49028e-011 1.18071e-026   
     length 0.561859   
     axis -7.52654e-015 90 90   XYZ
    dof rx rz
    limits (-90.0 90.0)
           (-45.0 45.0)
  end
  begin
     id 22 
     name lfingers
     direction 1 -4.48927e-011 2.35758e-026   
     length 0.452985   
     axis -1.50534e-014 90 90   XYZ
    dof rx
    limits (0.0 90.0)
  end
  begin
     id 23
     name lthumb
     direction 0.707107 -6.34898e-011 0.707107   
     length 0.650399   
     axis -90 45 5.69224e-014   XYZ
    dof rx rz
    limits (-45.0 45.0)
           (-45.0 45.0)
  end
  begin
     id 24 
     name rclavicle
     direction -0.988403 0.151789 0.00439714   
     length 3.6942  
     axis 0 0 0   XYZ 
    dof ry rz
    limits (-10.0 20.0)
           (-20.0 0.0)
  end
  begin
     id 25 
     name rhumerus
     direction -1 -4.48978e-011 1.62495e-027  
     length 5.22819   
     axis 180 30 90   XYZ
    dof rx ry rz
    limits (-90.0 60.0)
           (-90.0 90.0)
           (-90.0 90.0)
  end
  begin
     id 26 
     name rradius
     direction -1 -4.48961e-011 3.47796e-027   
     length 3.40764   
     axis 180 30 90   XYZ
    dof rx
    limits (-10.0 170.0)
  end
  begin
     id 27 
     name rwrist
     direction -1 -4.48949e-011 5.89602e-027   
     length 1.70382   
     axis -3.27506e-015 -90 -90   XYZ
    dof ry
    limits (-180.0 0.0)
  end
  begin
     id 28
     name rhand
     direction -1 -4.48977e-011 1.17973e-026   
     length 0.583255   
     axis -7.52654e-015 -90 -90   XYZ
    dof rx rz
    limits (-90.0 90.0)
           (-45.0 45.0)
  end
  begin
     id 29
     name rfingers
     direction -1 -4.49099e-011 2.36408e-026   
     length 0.470235   
     axis -1.50534e-014 -90 -90   XYZ
    dof rx
    limits (0.0 90.0)
  end
  begin
     id 30
     name rthumb
     direction -0.707107 -6.35011e-011 0.707107   
     length 0.675167   
     axis -90 -45 -5.69224e-014   XYZ
    dof rx rz
    limits (-45.0 45.0)
           (-45.0 45.0)
  end
:hierarchy
  begin
    root lhipjoint rhipjoint lowerback
    lhipjoint lfemur
    lfemur ltibia
    ltibia lfoot
    lfoot ltoes
    rhipjoint rfemur
    rfemur rtibia
    rtibia rfoot
    rfoot rtoes
    lowerback upperback
    upperback thorax
    thorax lowerneck lclavicle rclavicle
    lowerneck upperneck
    upperneck head
    lclavicle lhumerus
    lhumerus lradius
    lradius lwrist
    lwrist lhand lthumb
    lhand lfingers
    rclavicle rhumerus
    rhumerus rradius
    rradius rwrist
    rwrist rhand rthumb
    rhand rfingers
  end

#!OML:ASF G:\JayActor3\Patient Classification 1\Patient 1\Session 2\male.ASF
:FULLY-SPECIFIED
:DEGREES
336
root 44.3626 16.6687 -6.37955 206.424 -88.0776 -203.29
lowerback -0.907845 -0.17311 -2.96675
upperback 5.07974 -0.179093 -0.542464
thorax 5.77993 -0.253472 1.0833
lowerneck -12.0162 -2.05484 -1.96384
upperneck 6.21621 -3.06649 6.3947
head 3.94508 -1.23273 2.06916
rclavicle -4.07509e-015 -2.78299e-015
rhumerus -29.7376 -11.087 -84.3524
rradius 25.8882
rwrist -2.58636
rhand -20.9663 5.13011
rfingers 7.12502
rthumb 5.40686 -24.7809
lclavicle -4.07509e-015 -2.78299e-015
lhumerus -25.8124 -0.252061 88.4923
lradius 26.1862
lwrist 7.75337
lhand -18.8512 18.0352
lfingers 7.12502
lthumb 7.4488 47.8841
rfemur -29.4523 6.4786 19.0304
rtibia 37.4766
rfoot -15.4695 -9.30543
rtoes 14.8133
lfemur 13.5354 4.64529 -22.0103
ltibia 8.73217
lfoot -11.3532 8.7601
ltoes -17.375
337
root 44.2805 16.6812 -6.41098 210.59 -88.2753 -207.456
lowerback -0.989718 -0.223302 -2.91395
upperback 5.04506 -0.246061 -0.489824
thorax 5.79286 -0.284308 1.10434
lowerneck -11.9545 -2.06069 -1.96095
upperneck 6.29847 -3.07681 6.37482
head 3.96019 -1.23809 2.06217
rclavicle 9.19379e-015 1.0138e-014
rhumerus -29.7986 -10.944 -84.3358
rradius 25.9651
rwrist -2.66527
rhand -20.952 5.10851
rfingers 7.12502
rthumb 5.42065 -24.8022
lclavicle 9.19379e-015 1.0138e-014
lhumerus -26.082 0.00108332 88.4026
lradius 26.2606
lwrist 7.82719
lhand -18.8543 17.87
lfingers 7.12502
lthumb 7.4458 47.719
rfemur -29.05 6.41145 19.1247
rtibia 37.4123
rfoot -15.6338 -9.33027
rtoes 15.3481
lfemur 13.1503 4.46261 -21.8839
ltibia 9.84768
lfoot -11.2648 8.76972
ltoes -17.7413
338
root 44.1976 16.6942 -6.44196 214.761 -88.4715 -211.648
lowerback -1.06284 -0.267378 -2.82769
upperback 5.01683 -0.307191 -0.428566
thorax 5.80705 -0.311086 1.11584
lowerneck -11.8863 -2.06993 -1.96314
upperneck 6.37763 -3.09109 6.35841
head 3.97359 -1.24552 2.05684
rclavicle 1.78906e-015 6.95746e-015
rhumerus -29.8639 -10.7862 -84.3188
rradius 26.0654
rwrist -2.76376
rhand -20.9378 5.08973
rfingers 7.12502
rthumb 5.43441 -24.8206
lclavicle 1.78906e-015 6.95746e-015
lhumerus -26.3468 0.230808 88.3275
lradius 26.3194
lwrist 7.90791
lhand -18.916 17.622
lfingers 7.12502
lthumb 7.38625 47.4731
rfemur -28.5991 6.34209 19.2547
rtibia 37.3065
rfoot -15.7768 -9.36659
rtoes 15.8776
lfemur 12.7429 4.29001 -21.7252
ltibia 11.0425
lfoot -11.1716 8.80297
ltoes -18.0503
339
root 44.115 16.7077 -6.47281 219.553 -88.6835 -216.463
lowerback -1.13248 -0.311993 -2.71434
upperback 4.98847 -0.370895 -0.358009
thorax 5.81894 -0.338076 1.1216
lowerneck -11.8181 -2.08419 -1.97025
upperneck 6.45821 -3.11178 6.34571
head 3.98782 -1.25605 2.053
rclavicle 3.47873e-015 1.0138e-014
rhumerus -29.9281 -10.6216 -84.3004
rradius 26.1825
rwrist -2.87769
rhand -20.9276 5.07282
rfingers 7.12502
rthumb 5.44426 -24.8372
lclavicle 3.47873e-015 1.0138e-014
lhumerus -26.599 0.439358 88.2645
lradius 26.3616
lwrist 7.98364
lhand -19.016 17.3465
lfingers 7.12502
lthumb 7.28971 47.2009
rfemur -28.128 6.25953 19.4164
rtibia 37.1675
rfoot -15.8969 -9.42194
rtoes 16.4118
lfemur 12.2961 4.33875 -21.484
ltibia 12.3013
lfoot -11.0214 8.64207
ltoes -18.2851
340
root 44.0322 16.7213 -6.50307 225.764 -88.8882 -222.705
lowerback -1.20297 -0.354529 -2.58772
upperback 4.9632 -0.432817 -0.283854
thorax 5.83432 -0.363791 1.12364
lowerneck -11.7485 -2.103 -1.97966
upperneck 6.53836 -3.13805 6.3313
head 4.00194 -1.26951 2.04862
rclavicle 1.3418e-015 7.95139e-015
rhumerus -29.984 -10.4603 -84.2776
rradius 26.3022
rwrist -2.99174
rhand -20.9198 5.06442
rfingers 7.12502
rthumb 5.45182 -24.8455
lclavicle 1.3418e-015 7.95139e-015
lhumerus -26.8394 0.636874 88.2114
lradius 26.392
lwrist 8.05069
lhand -19.1264 17.0962
lfingers 7.12502
lthumb 7.18314 46.9543
rfemur -27.6365 6.16129 19.5897
rtibia 37.0051
rfoot -15.9913 -9.47845
rtoes 16.961
lfemur 11.8204 4.42532 -21.2298
ltibia 13.6144
lfoot -10.8422 8.49383
ltoes -18.444
